<?xml version="1.0" encoding="UTF-8"?>
<svg version="1.1" xmlns="http://www.w3.org/2000/svg" width="1080" height="1080">
<path d="M0 0 C356.4 0 712.8 0 1080 0 C1080 356.4 1080 712.8 1080 1080 C723.6 1080 367.2 1080 0 1080 C0 723.6 0 367.2 0 0 Z " fill="#FEFEFE" transform="translate(0,0)"/>
<path d="M0 0 C71.28 0 142.56 0 216 0 C265.4145653 98.64795357 265.4145653 98.64795357 280.69680786 129.1627655 C281.24184373 130.25106123 281.7868796 131.33935697 282.3484317 132.46063135 C300.68789248 169.0799543 319.02242322 205.70174354 337.35324097 242.32539368 C337.95728625 243.53222918 338.56133153 244.73906469 339.16537682 245.94590019 C351.84376025 271.27636424 364.52140291 296.60719896 377.19818962 321.93846213 C383.56593265 334.66273944 389.93381806 347.38694549 396.30183808 360.11108418 C397.26244344 362.03050168 398.22304475 363.94992122 399.18364588 365.86934084 C413.97979301 395.43408744 428.77899601 424.99729945 443.58703613 454.55609131 C443.90554738 455.19188171 444.22405862 455.82767211 444.55222173 456.48272889 C449.68775371 466.73388092 454.82354171 476.98490467 459.95936369 487.23591141 C474.74778757 516.75334478 489.53432301 546.27171725 504.30831718 575.79637623 C504.76381159 576.70664232 504.76381159 576.70664232 505.22850791 577.63529763 C511.89378616 590.95536352 518.5580899 604.27591673 525.22147045 617.59693204 C527.90239853 622.95643353 530.58346893 628.31586383 533.26458359 633.67527199 C533.85117424 634.84784648 534.43776489 636.02042097 535.04213101 637.22852803 C544.50211479 656.13784149 553.97453882 675.04089691 563.4515778 693.94166729 C572.9685327 712.92270335 582.47247413 731.91020839 591.96299423 750.90447607 C597.60859812 762.20255246 603.26428672 773.49544878 608.93424944 784.781321 C612.71476139 792.3087434 616.48231574 799.84255381 620.239153 807.38181968 C622.38398655 811.68515143 624.53456938 815.98534704 626.7009206 820.27789255 C628.66843984 824.17673264 630.61945276 828.08335832 632.55717453 831.99708927 C633.25976457 833.40874076 633.96851035 834.81734788 634.68384954 836.22258187 C635.64922633 838.12112369 636.59200783 840.0292757 637.52969658 841.9416067 C638.05909482 842.99899935 638.58849306 844.056392 639.13393367 845.14582686 C640 848 640 848 639.21239847 850.75487816 C638.61226123 851.86621347 638.61226123 851.86621347 638 853 C637.69373621 853.65351309 637.38747242 854.30702617 637.07192791 854.98034269 C636.75068451 855.62244976 636.42944111 856.26455684 636.09846306 856.92612171 C635.72524103 857.67455682 635.352019 858.42299192 634.96748722 859.19410688 C634.56087238 860.00442371 634.15425754 860.81474054 633.73532104 861.64961243 C633.30075565 862.51959765 632.86619025 863.38958288 632.4184562 864.28593129 C630.96169728 867.20109636 629.50208347 870.11482248 628.04248047 873.02856445 C626.99769195 875.11785944 625.95307956 877.20724251 624.90863037 879.29670715 C622.07178709 884.97068096 619.23247664 890.64341697 616.39272833 896.31593728 C613.72631979 901.64314132 611.06175256 906.97126585 608.39717747 912.29938712 C603.12002833 922.85149774 597.84109394 933.40271418 592.56103516 943.95336914 C587.4324928 954.20127236 582.30479231 964.4495961 577.17822266 974.69848633 C576.86212657 975.33041577 576.54603049 975.96234522 576.22035573 976.61342404 C574.63457168 979.78368709 573.04880417 982.95395841 571.46304488 986.12423384 C558.31126052 1012.41743886 545.15654825 1038.70917841 532 1065 C529.09452348 1061.46537792 527.13048939 1057.53708954 525.10805988 1053.46221542 C524.7237343 1052.69587194 524.33940871 1051.92952845 523.94343689 1051.13996243 C522.65023848 1048.55888006 521.36279 1045.97497211 520.07527161 1043.39105225 C519.14239598 1041.52617278 518.20916889 1039.6614691 517.27561969 1037.79692674 C514.70608207 1032.6623349 512.14155544 1027.52525417 509.57781684 1022.38776493 C506.81370769 1016.85092778 504.04498999 1011.31639587 501.27682495 1005.78158569 C496.47788452 996.18475497 491.68185536 986.5864753 486.88785744 976.98717499 C481.85426646 966.90815456 476.81901862 956.82996472 471.7815609 946.75287628 C471.31156064 945.81266956 471.31156064 945.81266956 470.83206544 944.85346876 C469.24061188 941.66988492 467.64912873 938.48631588 466.0576342 935.30275252 C454.77797991 912.73924087 443.50203645 890.17387661 432.22827148 867.60742188 C421.29523948 845.72302657 410.36055079 823.83946038 399.42358398 801.95703125 C399.08709238 801.28378498 398.75060077 800.61053872 398.40391245 799.91689105 C395.02383906 793.15410657 391.64373134 786.39133924 388.26359811 779.62858466 C381.35699157 765.8102865 374.45060674 751.99187753 367.5443573 738.17340088 C367.22623686 737.53688542 366.90811642 736.90036997 366.58035597 736.24456616 C350.17361994 703.41688424 333.7702513 670.58751999 317.36775208 637.75772095 C316.86934924 636.76016695 316.3709464 635.76261295 315.85744045 634.73483004 C313.55824542 630.13298655 311.25907191 625.5311323 308.95996124 620.92924666 C308.55131228 620.11133392 308.14266332 619.29342117 307.72163106 618.45072319 C306.93411807 616.87446759 306.14666263 615.29818324 305.35927065 613.72186719 C303.47826706 609.95660559 301.59577343 606.19210131 299.71044862 602.42900133 C299.34500535 601.69923268 298.97956207 600.96946402 298.60304476 600.21758117 C297.92081823 598.85540436 297.23818344 597.4934319 296.55504264 596.13171338 C294.28740956 591.6030781 292.11022781 587.0410339 290 582.4375 C287.18547195 576.37914461 284.17822513 570.46370665 281 564.58911133 C275.65930715 554.70439637 270.73464815 544.62462259 266 534.4375 C263.1823518 528.38051943 260.17832074 522.46388339 257 516.58911133 C251.65930715 506.70439637 246.73464815 496.62462259 242 486.4375 C239.1823518 480.38051943 236.17832074 474.46388339 233 468.58911133 C227.65930715 458.70439637 222.73464815 448.62462259 218 438.4375 C215.1823518 432.38051943 212.17832074 426.46388339 209 420.58911133 C203.65930715 410.70439637 198.73464815 400.62462259 194 390.4375 C191.1823518 384.38051943 188.17832074 378.46388339 185 372.58911133 C179.65930715 362.70439637 174.73464815 352.62462259 170 342.4375 C167.1823518 336.38051943 164.17832074 330.46388339 161 324.58911133 C155.65930715 314.70439637 150.73464815 304.62462259 146 294.4375 C143.1823518 288.38051943 140.17832074 282.46388339 137 276.58911133 C131.65930715 266.70439637 126.73464815 256.62462259 122 246.4375 C119.1823518 240.38051943 116.17832074 234.46388339 113 228.58911133 C107.65930715 218.70439637 102.73464815 208.62462259 98 198.4375 C95.1823518 192.38051943 92.17832074 186.46388339 89 180.58911133 C83.2819494 170.00597129 78.06830669 159.19190799 73 148.28564453 C70.80724477 143.60783809 68.4683539 139.03776974 66 134.5 C62.77295644 128.56747119 59.84569186 122.53416213 57 116.41064453 C52.29779413 106.30595311 47.30312929 96.3647441 42 86.5625 C38.78153183 80.60723383 35.85262895 74.54863744 33 68.41088867 C28.29821688 58.30595781 23.30331017 48.36468565 18 38.5625 C14.73652101 32.52610421 11.76119253 26.38387056 8.87695312 20.15820312 C6.38388099 14.77893969 3.75524102 9.48952187 1.03125 4.22265625 C0 2 0 2 0 0 Z " fill="#FE4205" transform="translate(3,8)"/>
<path d="M0 0 C-1.43664652 3.03983492 -2.87435941 6.07916434 -4.31225586 9.1184082 C-4.9183884 10.40098888 -4.9183884 10.40098888 -5.53676605 11.70948029 C-8.47004578 17.90759063 -11.47130931 24.06646596 -14.5625 30.1875 C-15.02446777 31.10764893 -15.48643555 32.02779785 -15.96240234 32.97583008 C-17.67842822 36.393309 -19.39879435 39.80858159 -21.12158203 43.22265625 C-25.37050509 51.64459306 -29.51626439 60.10389783 -33.50439453 68.65307617 C-36.80628489 75.69726595 -40.30265308 82.64264476 -43.79321289 89.59448242 C-46.04416125 94.08135157 -48.28699196 98.57228186 -50.53125 103.0625 C-51.51689432 105.03387055 -52.50257182 107.00522451 -53.48828125 108.9765625 C-53.98408691 109.96817383 -54.47989258 110.95978516 -54.99072266 111.98144531 C-59.51171875 121.0234375 -59.51171875 121.0234375 -60.99780273 123.99536133 C-61.97674166 125.95340166 -62.95542097 127.91157182 -63.93383789 129.86987305 C-65.97599453 133.95663454 -68.01919588 138.04275236 -70.078125 142.12109375 C-74.05128453 150.00241107 -77.89795267 157.93849374 -81.703125 165.90234375 C-87.90052267 178.86589847 -94.30345293 191.72144166 -100.75 204.5625 C-101.83222502 206.72190811 -102.91425656 208.88141319 -103.99609375 211.04101562 C-107.78980772 218.61275213 -111.58516182 226.18366269 -115.38671875 233.75146484 C-118.83908539 240.63040145 -122.24917043 247.5229231 -125.5 254.5 C-129.14088834 262.31423862 -132.98937086 270.02010893 -136.85766602 277.72338867 C-138.86804088 281.72995965 -140.87099793 285.74023882 -142.875 289.75 C-143.72392564 291.44793302 -144.57288426 293.14584954 -145.421875 294.84375 C-145.84662109 295.69324219 -146.27136719 296.54273438 -146.70898438 297.41796875 C-150.578125 305.15625 -150.578125 305.15625 -151.8572998 307.71447754 C-152.69768085 309.39532055 -153.53793299 311.07622803 -154.37805176 312.75720215 C-156.33169044 316.66583311 -158.28711503 320.57353786 -160.24804688 324.47851562 C-163.74614159 331.4486865 -167.20606309 338.43040417 -170.5 345.5 C-174.12063026 353.2707598 -177.94679038 360.93390465 -181.79321289 368.59448242 C-184.04416125 373.08135157 -186.28699196 377.57228186 -188.53125 382.0625 C-189.51689432 384.03387055 -190.50257182 386.00522451 -191.48828125 387.9765625 C-191.98408691 388.96817383 -192.47989258 389.95978516 -192.99072266 390.98144531 C-197.51171875 400.0234375 -197.51171875 400.0234375 -198.99963379 402.99914551 C-199.97233909 404.94463694 -200.94491578 406.89019268 -201.9173584 408.83581543 C-204.05583522 413.11406255 -206.19560371 417.39163349 -208.34179688 421.66601562 C-211.80848094 428.57380082 -215.23556037 435.49371257 -218.5 442.5 C-222.12100529 450.27156472 -225.94480054 457.93710856 -229.79321289 465.59771729 C-233.5308712 473.03806189 -237.26098749 480.48219501 -240.99072266 487.92651367 C-241.99619039 489.93240717 -243.00237439 491.93794179 -244.00927734 493.94311523 C-249.56221132 505.00296439 -255.05401429 516.07847923 -260.26367188 527.3046875 C-263.05448299 533.2916967 -266.05222939 539.17725512 -269.02856445 545.07351685 C-270.55790549 548.10639921 -272.07575614 551.14502204 -273.59375 554.18359375 C-274.29686841 555.59041671 -274.99999377 556.99723619 -275.703125 558.40405273 C-276.26 559.51839188 -276.26 559.51839188 -276.828125 560.65524292 C-278.9160832 564.83295366 -281.00498693 569.01019164 -283.09375 573.1875 C-283.98828534 574.97656045 -284.88281655 576.76562298 -285.77734375 578.5546875 C-291.22265625 589.4453125 -291.22265625 589.4453125 -292.57141113 592.1427002 C-293.45590027 593.91175935 -294.3402606 595.68088291 -295.2244873 597.45007324 C-297.23973945 601.48190923 -299.25660863 605.51290438 -301.27929688 609.54101562 C-304.76692108 616.49039145 -308.21589552 623.45150699 -311.5 630.5 C-315.14088834 638.31423862 -318.98937086 646.02010893 -322.85766602 653.72338867 C-324.86804088 657.72995965 -326.87099793 661.74023882 -328.875 665.75 C-329.72392564 667.44793302 -330.57288426 669.14584954 -331.421875 670.84375 C-331.84662109 671.69324219 -332.27136719 672.54273438 -332.70898438 673.41796875 C-336.578125 681.15625 -336.578125 681.15625 -337.8572998 683.71447754 C-338.69768085 685.39532055 -339.53793299 687.07622803 -340.37805176 688.75720215 C-342.33169044 692.66583311 -344.28711503 696.57353786 -346.24804688 700.47851562 C-349.74618586 707.4487747 -353.2028202 714.43186621 -356.5 721.5 C-360.18008968 729.32326857 -363.9907661 737.07072057 -367.88623047 744.78857422 C-370.10148545 749.18703534 -372.29895867 753.59441435 -374.5 758 C-375.36452086 759.7291979 -376.2290987 761.45836732 -377.09375 763.1875 C-377.64579102 764.29158203 -377.64579102 764.29158203 -378.20898438 765.41796875 C-378.60053711 766.20107422 -378.60053711 766.20107422 -379 767 C-382.15302412 763.2203732 -384.16433482 758.94660936 -386.34024048 754.5667572 C-386.77087119 753.7079102 -387.20150189 752.84906321 -387.64518201 751.96419054 C-389.08839427 749.08340562 -390.5258658 746.19979462 -391.96337891 743.31616211 C-392.99633066 741.25133141 -394.02962873 739.18667392 -395.06324768 737.12217712 C-397.87043672 731.5126503 -400.67261415 725.90063356 -403.47380495 720.28810954 C-406.40287544 714.42119402 -409.33615608 708.55638409 -412.26889038 702.69129944 C-417.1928732 692.84275152 -422.11349153 682.9925272 -427.03222656 673.14135742 C-432.09475391 663.0022098 -437.16008523 652.86446957 -442.22851562 642.72827148 C-442.69693707 641.79148853 -442.69693707 641.79148853 -443.17482157 640.83578067 C-443.48655972 640.21234472 -443.79829787 639.58890877 -444.11948264 638.94658083 C-449.59589879 627.99440314 -455.06999429 617.04106755 -460.54282761 606.08709908 C-462.87472101 601.41977585 -465.20729773 596.75279506 -467.54039383 592.08607292 C-470.28535842 586.59514143 -473.02828668 581.10319746 -475.7696209 575.61045265 C-476.77796919 573.59082789 -477.78700039 571.57154393 -478.79675102 569.55261993 C-480.17092868 566.8047531 -481.54265179 564.05567508 -482.91372681 561.30625916 C-483.51911236 560.09781095 -483.51911236 560.09781095 -484.13672793 558.86494964 C-484.68557416 557.76242051 -484.68557416 557.76242051 -485.24550819 556.63761806 C-485.56246733 556.00299536 -485.87942647 555.36837266 -486.20599043 554.71451896 C-487 553 -487 553 -488 550 C-487.03067585 547.64900429 -485.99817431 545.49016289 -484.8125 543.25 C-484.45591309 542.55680664 -484.09932617 541.86361328 -483.73193359 541.14941406 C-482.49894524 538.76040163 -481.25032066 536.37998423 -480 534 C-479.04779086 532.17728505 -478.09598297 530.35436044 -477.14453125 528.53125 C-475.62156978 525.61425238 -474.09763681 522.69779126 -472.57006836 519.78320312 C-468.84063118 512.65586032 -465.22129071 505.47989074 -461.64672852 498.27392578 C-458.46999311 491.88996442 -455.16320714 485.58208841 -451.81982422 479.28417969 C-448.62047249 473.23445109 -445.54339385 467.12947954 -442.5 461 C-438.69460989 453.33591366 -434.78357677 445.74019374 -430.76953125 438.18359375 C-427.58593305 432.16789872 -424.52677472 426.095919 -421.5 420 C-418.14584503 413.24493411 -414.73064548 406.5328714 -411.1875 399.875 C-406.99031401 391.9832037 -402.97924742 384.00322643 -399 376 C-394.64260749 367.23623258 -390.2153235 358.51919448 -385.6171875 349.87890625 C-381.99095427 343.04256491 -378.54606064 336.12076254 -375.10473633 329.18994141 C-371.75748439 322.46713595 -368.29245225 315.81563234 -364.76953125 309.18359375 C-361.58593305 303.16789872 -358.52677472 297.095919 -355.5 291 C-352.14584503 284.24493411 -348.73064548 277.5328714 -345.1875 270.875 C-340.99031401 262.9832037 -336.97924742 255.00322643 -333 247 C-328.64260749 238.23623258 -324.2153235 229.51919448 -319.6171875 220.87890625 C-315.99095427 214.04256491 -312.54606064 207.12076254 -309.10473633 200.18994141 C-305.75748439 193.46713595 -302.29245225 186.81563234 -298.76953125 180.18359375 C-295.58593305 174.16789872 -292.52677472 168.095919 -289.5 162 C-286.14584503 155.24493411 -282.73064548 148.5328714 -279.1875 141.875 C-274.99031401 133.9832037 -270.97924742 126.00322643 -267 118 C-262.64260749 109.23623258 -258.2153235 100.51919448 -253.6171875 91.87890625 C-250.48102189 85.9664629 -247.47640098 79.99427045 -244.5 74 C-241.14583708 67.24494253 -237.73075385 60.53281236 -234.1875 53.875 C-229.31340074 44.71363628 -224.68561252 35.43293383 -220.0847168 26.13232422 C-209.20061459 4.20061459 -209.20061459 4.20061459 -207 2 C-204.87527819 1.84472175 -202.7453283 1.76110921 -200.61572266 1.70336914 C-199.59046289 1.67446626 -199.59046289 1.67446626 -198.54449081 1.64497948 C-196.20946102 1.58164118 -193.8743254 1.52668504 -191.5390625 1.47265625 C-190.3029315 1.44202937 -190.3029315 1.44202937 -189.04182816 1.41078377 C-164.42749899 0.80587938 -139.80522613 0.65831968 -115.18499756 0.46777344 C-110.14372184 0.42771652 -105.10248596 0.38352519 -100.06124496 0.33934593 C-66.70690755 0.0489567 -33.3555278 -0.06044545 0 0 Z " fill="#FE4205" transform="translate(1078,7)"/>
</svg>
